Genre:Action/Drama/Family/Sport
Language:English
IMDb:http://www.imdb.com/title/tt1155076/
Source:720p.BluRay.x264.DTS-WiKi
Subtitles: ROMANA
.............................................
General
Complete name : The.Karate.Kid.2010.480p.BRRip.H264.FEEL-FREE
Format : MPEG-4
Format profile : Base Media
Codec ID : isom
File size : 1.33 GiB
Duration : 2h 12mn
Overall bit rate : 1 439 Kbps
.............................................

Video
ID : 1
Format : MPEG-4 Visual
Format profile : Simple@L1
Format settings, BVOP : No
Format settings, QPel : No
Format settings, GMC : No warppoints
Format settings, Matrix : Default (H.263)
Codec ID : 20
Duration : 2h 12mn
Bit rate mode : Variable
Bit rate : 1 199 Kbps
Width : 688 pixels
Height : 288 pixels
Display aspect ratio : 2.35:1
Frame rate mode : Constant
Frame rate : 29.970 fps
Resolution : 24 bits
Colorimetry : 4:2:0
Scan type : Progressive
Bits/(Pixel*Frame) : 0.202
Stream size : 1.11 GiB (83%)
................................................

Audio
ID : 2
Format : AAC
Format/Info : Advanced Audio Codec
Format version : Version 4
Format profile : LC
Format settings, SBR : No
Codec ID : 40
Duration : 2h 12mn
Bit rate mode : Variable
Bit rate : 235 Kbps
Channel(s) : 6 channels
Channel positions : Front: L C R, Rear: L R, LFE
Sampling rate : 48.0 KHz
Resolution : 16 bits
Stream size : 223 MiB (16%)
.................................................
Plot:
Work causes a single mother to move to China with her young son; in his new home, the boy embraces kung fu, taught to him by a master
...................................................
Screenshots:
 
http://www.starshare.ro/bitbucket/vlcsnap-2010-08-18-13h17m28s131.jpg
 
http://www.starshare.ro/bitbucket/vlcsnap-2010-08-18-13h25m51s27.jpg
 
http://www.starshare.ro/bitbucket/vlcsnap-2010-08-18-13h25m45s225.jpg
 
http://www.starshare.ro/bitbucket/vlcsnap-2010-08-18-13h17m37s213.jpg

.....................................................